<svg width="20" height="20" viewBox="0 0 20 20" fill="none" xmlns="http://www.w3.org/2000/svg">
<path d="M8 2C8 0.895431 8.89543 0 10 0C11.1046 0 12 0.895431 12 2V18C12 19.1046 11.1046 20 10 20C8.89543 20 8 19.1046 8 18V2Z" fill="white"/>
<path d="M16 5C16 3.89543 16.8954 3 18 3C19.1046 3 20 3.89543 20 5V15C20 16.1046 19.1046 17 18 17C16.8954 17 16 16.1046 16 15V5Z" fill="white"/>
<path d="M2 3C0.895431 3 0 3.89543 0 5V15C0 16.1046 0.895431 17 2 17C3.10457 17 4 16.1046 4 15V5C4 3.89543 3.10457 3 2 3Z" fill="white"/>
</svg>
