<svg width="20" height="21" viewBox="0 0 20 21" fill="none" xmlns="http://www.w3.org/2000/svg">
<path fill-rule="evenodd" clip-rule="evenodd" d="M6.73178 1.21911C6.83601 0.524212 7.4193 0 8.14181 0H11.8582C12.5506 0 13.1712 0.494567 13.2798 1.21911L13.281 1.22706L13.555 3.16359C13.8381 3.30513 14.1082 3.46266 14.3687 3.63542L16.2163 2.89266L16.2441 2.8834C16.8261 2.68939 17.584 2.86473 17.9603 3.53181L19.8244 6.75898L19.8327 6.77476C20.1428 7.36044 20.0226 8.13023 19.4658 8.57561L19.457 8.58266L17.9201 9.78301C17.9308 9.93993 17.936 10.0985 17.936 10.2588C17.936 10.4199 17.9307 10.5772 17.9214 10.7303L19.4426 11.9327C20.0292 12.3821 20.1453 13.1596 19.8118 13.7599L19.8079 13.767L17.9486 16.9858C17.5927 17.6163 16.8392 17.8713 16.1877 17.618L16.1775 17.614L14.3555 16.8815C14.098 17.0516 13.8274 17.2103 13.5436 17.3529L13.2715 19.2758C13.1828 20.0346 12.5328 20.5175 11.8582 20.5175H8.14181C7.4121 20.5175 6.85791 19.9929 6.72825 19.3446L6.72286 19.3177L6.44497 17.3539C6.16191 17.2124 5.89181 17.0549 5.63131 16.8821L3.7837 17.6249L3.75593 17.6341C3.17388 17.8281 2.41603 17.6528 2.0397 16.9857L0.17564 13.7585L0.167284 13.7428C-0.142779 13.1571 -0.0225603 12.3873 0.534173 11.9419L0.54298 11.9349L2.08021 10.7343C2.06933 10.5747 2.06398 10.4151 2.06398 10.2588C2.06398 10.0967 2.07205 9.93526 2.08539 9.77823L0.560233 8.58698C-0.0287797 8.13792 -0.145856 7.35891 0.188219 6.75758L0.192143 6.75051L2.05138 3.53171C2.40732 2.90124 3.16085 2.64621 3.81227 2.89955L3.82251 2.90353L5.64452 3.63606C5.90202 3.46588 6.17264 3.30725 6.45644 3.16458L6.73178 1.21911ZM8.58525 1.93561L8.22084 4.51076L7.7062 4.72082C7.22713 4.91636 6.77697 5.18456 6.35631 5.50262L5.9196 5.83282L3.51573 4.86643L2.09357 7.32855L4.15898 8.94177L4.06874 9.50579C4.02686 9.7675 3.9996 10.0262 3.9996 10.2588C3.9996 10.5138 4.01942 10.7761 4.05712 11.0117L4.14737 11.5757L2.08196 13.189L3.50412 15.6511L5.91018 14.6838L6.34754 15.017C6.77506 15.3428 7.2126 15.6 7.69458 15.7967L8.20923 16.0068L8.57364 18.5819H11.4148L11.7792 16.0068L12.2938 15.7967C12.7729 15.6012 13.223 15.333 13.6437 15.0149L14.0804 14.6847L16.4843 15.6511L17.9077 13.1867L15.8846 11.5877L15.9492 11.0493C15.9807 10.787 16.0004 10.5247 16.0004 10.2588C16.0004 9.99304 15.9807 9.74236 15.9429 9.50579L15.8526 8.94177L17.918 7.32855L16.4959 4.86644L14.0898 5.83369L13.6525 5.50047C13.2249 5.17473 12.7874 4.91754 12.3054 4.72082L11.7908 4.51076L11.4264 1.93561H8.58525ZM10 7.74246C8.61825 7.74246 7.4837 8.877 7.4837 10.2588C7.4837 11.6405 8.61825 12.7751 10 12.7751C11.3818 12.7751 12.5163 11.6405 12.5163 10.2588C12.5163 8.877 11.3818 7.74246 10 7.74246ZM5.54809 10.2588C5.54809 7.80799 7.54924 5.80684 10 5.80684C12.4508 5.80684 14.4519 7.80799 14.4519 10.2588C14.4519 12.7095 12.4508 14.7107 10 14.7107C7.54924 14.7107 5.54809 12.7095 5.54809 10.2588Z" fill="#333333"/>
</svg>
